<?xml version="1.0" ?><svg style="enable-background:new 0 0 512 512;" version="1.1" viewBox="0 0 512 512" xml:space="preserve" xmlns="http://www.w3.org/2000/svg" xmlns:xlink="http://www.w3.org/1999/xlink"><style type="text/css">
	.st0{fill:#1E1E1E;}
	.st1{fill:#464646;stroke:#21759B;stroke-width:2;stroke-miterlimit:10;}
	.st2{fill:#FFFFFF;}
</style><g id="Edges"/><g id="Background_Bottom"><g><path class="st0" d="M492.3,443.1c0,34.2-27.7,61.9-61.9,61.9H80.7c-34.2,0-61.9-27.7-61.9-61.9V93.4c0-34.2,27.7-61.9,61.9-61.9    h349.7c34.2,0,61.9,27.7,61.9,61.9V443.1z"/></g></g><g id="Background"><path class="st1" d="M492.3,418.4c0,34.2-27.7,61.9-61.9,61.9H80.7c-34.2,0-61.9-27.7-61.9-61.9V68.6c0-34.2,27.7-61.9,61.9-61.9   h349.7c34.2,0,61.9,27.7,61.9,61.9V418.4z"/></g><g id="Symbol"><path class="st2" d="M426.1,188c-28.3-14.7-56.6-29.4-84.9-44L256,188.1l-85.2-44.2c-28.2,14.6-56.4,29.3-84.6,43.9v89.4   c56.6,29.4,113.2,58.8,169.8,88.1c56.7-29.4,113.4-58.8,170-88.2C426.1,247.4,426.1,217.7,426.1,188z M168.9,228.7l-76.2-39.5   l76.2-39.5v76.5V228.7z M341.2,149c22.9,14.7,45.7,29.3,68.6,44l-68.6,35.6v-0.6V149z M254.9,273.3l-77-39.9l78.1-40.5l77,39.9   L254.9,273.3z M250.3,275.7l-77.1,40v-78.9v-1l0.2-0.1L250.3,275.7z M168.7,233.4L90.4,274v-81.2L168.7,233.4z M168.9,238.1v77.3   l-74.5-38.6L168.9,238.1z M254,278.5v80.9L176,319L254,278.5z M258.3,276.3l78.7-40.8v2.5v80.5l-78.7,40.8V276.3z M341.2,238v-0.9   l76.4,39.6l-76.4,39.6V238z M342.2,232.8l79.6-41.3v82.6L342.2,232.8z M337,150.9v77v2.2l-76.3-39.6L337,150.9z M173.3,231   l-0.2-0.1v-4.7v-76.2l78.2,40.6L173.3,231z"/></g></svg>